<?xml version="1.0" standalone="no"?>
<!DOCTYPE svg PUBLIC "-//W3C//DTD SVG 20010904//EN"
 "http://www.w3.org/TR/2001/REC-SVG-20010904/DTD/svg10.dtd">
<svg version="1.0" xmlns="http://www.w3.org/2000/svg"
 width="300.000000pt" height="84.000000pt" viewBox="0 0 300.000000 84.000000"
 preserveAspectRatio="xMidYMid meet">
<metadata>
Created by potrace 1.10, written by Peter Selinger 2001-2011
</metadata>
<g transform="translate(0.000000,84.000000) scale(0.100000,-0.100000)"
fill="#000000" stroke="none">
<path d="M296 699 c-33 -26 -33 -38 4 -261 44 -261 48 -275 77 -298 31 -24 94
-26 128 -4 22 14 26 14 47 0 12 -9 41 -16 64 -16 34 0 47 5 67 29 13 16 27 46
31 68 3 21 21 127 40 237 24 135 32 206 26 222 -18 47 -88 59 -134 23 -15 -11
-32 -18 -39 -15 -7 4 -23 13 -37 21 -36 21 -65 18 -97 -9 l-28 -24 -28 24
c-36 30 -85 31 -121 3z m113 -96 c5 -43 13 -111 17 -150 4 -40 10 -73 15 -73
4 0 10 26 14 58 4 31 12 98 18 147 l12 90 40 3 41 3 17 -118 c9 -65 17 -132
17 -150 0 -58 17 -44 24 20 3 34 12 104 18 155 l11 92 49 0 c32 0 48 -4 48
-12 0 -7 -11 -76 -25 -153 -14 -77 -33 -187 -43 -245 l-18 -105 -54 0 c-50 0
-53 2 -55 25 -4 59 -16 167 -22 190 -6 24 -6 23 -14 -10 -4 -19 -11 -74 -15
-122 l-7 -88 -53 0 c-47 0 -54 3 -58 23 -3 12 -19 105 -36 207 -17 102 -35
203 -40 225 -15 64 -15 65 39 65 l49 0 11 -77z"/>
<path d="M893 696 l-28 -24 -3 -245 -3 -244 26 -32 27 -31 117 0 c110 0 119 2
139 23 16 17 22 36 22 68 0 62 -28 89 -94 89 -40 0 -47 3 -44 18 2 13 16 18
57 22 64 7 81 25 81 90 0 60 -21 80 -92 89 l-53 7 53 7 c71 10 92 33 92 96 0
42 -4 53 -26 70 -23 18 -41 21 -135 21 -100 0 -110 -2 -136 -24z m267 -66 l0
-50 -80 0 -80 0 0 -56 0 -56 78 3 77 4 3 -47 3 -48 -80 0 -81 0 0 -60 0 -60
80 0 80 0 0 -50 0 -50 -130 0 -130 0 0 260 0 260 130 0 130 0 0 -50z"/>
<path d="M1317 695 l-27 -28 0 -249 0 -249 25 -24 c22 -23 32 -25 107 -25 107
0 159 24 206 94 26 39 32 58 32 102 0 29 -5 65 -12 79 -9 21 -8 35 6 76 22 60
16 99 -23 160 -39 62 -84 82 -196 87 -87 4 -91 3 -118 -23z m240 -42 c43 -31
65 -68 70 -114 4 -35 0 -51 -20 -80 -24 -35 -24 -36 -6 -58 26 -32 26 -125 -1
-168 -31 -52 -85 -73 -185 -73 l-85 0 0 261 0 262 101 -5 c79 -4 106 -9 126
-25z"/>
<path d="M1427 528 l1 -53 36 1 c43 1 66 19 66 50 0 33 -26 54 -68 54 l-37 0
2 -52z"/>
<path d="M1425 320 l0 -60 33 0 c36 0 72 29 72 58 0 28 -42 62 -76 62 -29 0
-29 0 -29 -60z"/>
<path d="M1827 700 c-50 -28 -89 -88 -95 -149 -3 -39 1 -61 22 -106 l26 -58
-25 -23 c-32 -29 -33 -81 -4 -142 42 -86 145 -131 225 -97 108 45 153 159 103
262 l-21 44 21 23 c46 49 16 178 -54 232 -50 38 -141 44 -198 14z m165 -37
c41 -25 64 -68 72 -136 l6 -58 -51 3 -51 3 -2 43 c-3 56 -26 80 -63 66 -23 -8
-29 -16 -31 -46 -3 -40 0 -44 97 -101 71 -42 93 -72 93 -129 0 -81 -49 -139
-129 -154 -78 -15 -163 67 -163 155 l0 42 48 -3 c47 -3 47 -3 50 -40 5 -62 69
-77 94 -22 14 31 3 44 -77 89 -35 19 -74 49 -85 66 -24 33 -36 94 -26 133 8
31 53 85 80 96 36 15 106 11 138 -7z"/>
<path d="M2213 696 l-28 -24 0 -250 0 -250 24 -26 c31 -33 87 -35 125 -5 l26
20 0 259 0 259 -26 20 c-36 28 -86 27 -121 -3z m110 -279 l2 -257 -50 0 -50 0
2 257 c2 142 3 259 3 261 0 2 20 2 45 0 l46 -3 2 -258z"/>
<path d="M2547 700 c-20 -11 -49 -39 -65 -62 -26 -40 -27 -45 -30 -209 -3
-154 -2 -171 18 -208 26 -52 89 -98 146 -107 56 -8 125 24 168 79 l31 39 3
168 c4 195 -7 235 -73 286 -50 38 -141 44 -198 14z m165 -37 c16 -10 39 -34
51 -53 20 -32 22 -48 22 -190 0 -174 -9 -204 -68 -240 -76 -47 -163 -26 -205
49 -20 35 -22 53 -22 190 0 167 6 189 60 235 39 32 115 36 162 9z"/>
<path d="M2606 574 c-13 -12 -16 -41 -16 -154 0 -113 3 -142 16 -154 21 -21
40 -20 64 4 18 18 20 33 20 148 0 99 -3 132 -16 150 -18 26 -46 28 -68 6z"/>
</g>
</svg>
